<svg height="512pt" viewBox="0 0 512 512" width="512pt" xmlns="http://www.w3.org/2000/svg"><path d="m512 256c0 24.671875-3.488281 48.53125-10.011719 71.089844-.078125.308594-.167969.621094-.257812.929687-27.628907 94.410157-108.179688 166.230469-207.371094 181.121094h-.007813c-12.511718 1.890625-25.320312 2.859375-38.351562 2.859375-141.378906 0-256-114.621094-256-256s114.621094-256 256-256 256 114.621094 256 256zm0 0" fill="#ff455a"/><path d="m501.988281 327.089844c-1.8125 7.015625-4.335937 13.929687-6.933593 20.6875-2.539063 6.617187-5.359376 13.128906-8.445313 19.511718-6.164063 12.746094-13.390625 24.980469-21.574219 36.53125-8.113281 11.453126-17.167968 22.238282-27.035156 32.214844-9.867188 9.976563-20.554688 19.144532-31.914062 27.378906-11.457032 8.308594-23.601563 15.664063-36.273438 21.960938-12.820312 6.371094-26.175781 11.660156-39.882812 15.789062-6.902344 2.078126-13.894532 3.863282-20.949219 5.34375-3.605469.761719-7.226563 1.441407-10.867188 2.042969-.863281.140625-1.730469.28125-2.59375.414063-.3125.046875-.863281.265625-1.160156.175781-.386719-.113281-1.011719-1.003906-1.296875-1.277344-1.609375-1.554687-112.019531-112.980469-112.0625-116.222656-.035156-2.691406 0-145.15625 0-149.667969 0-.742187.1875-1.511718-.277344-2.082031-1.398437-1.703125-15.785156-15.703125-18.867187-18.859375-10.664063-10.90625-14.214844-27.394531-8.957031-41.714844 4.601562-12.546875 15.515624-22.199218 28.542968-25.203125 7.648438-1.765625 15.785156-1.230469 23.128906 1.546875-.886718-10.773437 3.601563-21.59375 11.660157-28.75 8.4375-7.488281 20.242187-10.476562 31.230469-7.890625 6.65625 1.566407 12.472656 5.046875 17.269531 9.882813 1.957031 1.96875 3.929687 3.921875 5.890625 5.886718.441406.445313.882812.894532 1.324218 1.339844.363282.363282 1.175782 1.425782 1.625 1.382813.613282-.058594 1.5625-.769531 2.148438-1.023438.789062-.335937 1.589844-.640625 2.402344-.90625 6.570312-2.160156 13.839844-1.960937 20.277344.566407 3.144531 1.234374 6.066406 3.007812 8.621093 5.214843 2.597657 2.246094 4.929688 4.832031 7.363281 7.25 4.9375 4.898438 9.804688 9.867188 14.75 14.757813.628907.625 1.152344.707031 2.011719.917968.917969.230469 1.828125.492188 2.726563.785157 1.613281.523437 3.195312 1.152343 4.730468 1.878906 3.105469 1.472656 6.007813 3.351563 8.628907 5.570313 2.628906 2.230468 5 4.789062 7.429687 7.234374 2.449219 2.464844 4.910156 4.917969 7.371094 7.375 4.921875 4.910157 137.554688 137.554688 139.957031 139.957032zm0 0" fill="#bf0032"/><path d="m381.117188 254.820312h-58.800782v30h38.402344v30h-38.402344v30h68.402344v-90zm0 0" fill="#ff6015"/><path d="m321 401.675781h-130c-5.523438 0-10-4.476562-10-10v-180h150v180c0 5.523438-4.476562 10-10 10zm0 0" fill="#ffcd00"/><path d="m331 211.671875v180c0 5.527344-4.480469 10-10 10h-65v-190zm0 0" fill="#ff9600"/><path d="m211.296875 241.675781h30v130h-30zm0 0" fill="#ff9600"/><path d="m271.296875 241.675781h30v130h-30zm0 0" fill="#ff6015"/><path d="m321.464844 163.09375c-1.359375 0-2.699219.066406-4.023438.199219-.421875-16.199219-13.675781-29.199219-29.976562-29.199219-5.914063 0-11.425782 1.714844-16.070313 4.671875-5.476562-12.183594-17.707031-20.671875-31.929687-20.671875-19.332032 0-35 15.667969-35 35 0 .863281.039062 1.714844.101562 2.5625-4.386718-1.652344-9.136718-2.5625-14.101562-2.5625-22.09375 0-40 17.90625-40 40 0 22.089844 17.90625 40 40 40 8.179687 0 15.78125-2.460938 22.121094-6.679688 4.90625 9.882813 15.09375 16.679688 26.878906 16.679688 5.296875 0 12.175781-1.898438 16.5-4.308594 4.675781 10.480469 13.277344 18.308594 25.5 18.308594 11.621094 0 21.695312-6.617188 26.675781-16.285156 4.167969 1.472656 8.648437 2.285156 13.324219 2.285156 22.089844 0 40-17.910156 40-40 0-22.09375-17.910156-40-40-40zm0 0" fill="#fff"/><path d="m361.460938 203.089844c0 22.089844-17.910157 40-40 40-4.671876 0-9.152344-.808594-13.320313-2.28125-4.980469 9.671875-15.050781 16.28125-26.679687 16.28125-12.179688 0-20.769532-7.769532-25.460938-18.21875v-116.632813c6.78125 3.640625 12.21875 9.460938 15.390625 16.523438 4.648437-2.953125 10.160156-4.671875 16.070313-4.671875 16.300781 0 29.558593 13.011718 29.980468 29.199218 1.320313-.128906 2.667969-.199218 4.019532-.199218 22.089843 0 40 17.910156 40 40zm0 0" fill="#e6e6e6"/></svg>