<svg id="Capa_1" enable-background="new 0 0 512 512" height="512" viewBox="0 0 512 512" width="512" xmlns="http://www.w3.org/2000/svg"><circle cx="256" cy="256" fill="#1dd882" r="256"/><path d="m260.148 511.948c139.47-2.219 251.852-115.95 251.852-255.948 0-3.835-.1-7.646-.267-11.44l-140.014-140.014-247.447 151.454 103.611 103.611-64.709 55.362z" fill="#00af5b"/><path d="m386.826 374.5h-82.326v-216h82.326c32.353 0 58.674 26.321 58.674 58.674v98.652c0 32.353-26.321 58.674-58.674 58.674zm-45.326-37h45.326c11.951 0 21.674-9.723 21.674-21.674v-98.652c0-11.951-9.723-21.674-21.674-21.674h-45.326z" fill="#ffdc4a"/><path d="m314.003 429.114h-116.006c-27.61 0-49.992-22.382-49.992-49.992v-252.236h215.989v252.236c.001 27.61-22.381 49.992-49.991 49.992z" fill="#ffce00"/><path d="m255.595 126.886v302.228h58.408c27.61 0 49.992-22.382 49.992-49.992v-252.236z" fill="#ffa300"/><path d="m296.5 177h37v204h-37z" fill="#ffe89c"/><path d="m178.5 177h37v204h-37z" fill="#fff4c5"/><path d="m237.5 177h37v204h-37z" fill="#fff4c5"/><path d="m255.595 177h18.905v204h-18.905z" fill="#ffe89c"/><path d="m343.5 90.886c-2.814 0-5.549.333-8.177.944-8.206-12.686-22.468-21.088-38.701-21.088-5.447 0-10.671.952-15.522 2.688-8.661-7.727-20.079-12.43-32.6-12.43s-23.939 4.703-32.6 12.429c-4.851-1.736-10.074-2.688-15.522-2.688-16.01 0-30.108 8.17-38.365 20.565-1.797-.276-3.638-.42-5.513-.42-19.882 0-36 16.118-36 36v118.614c0 9.113 7.387 16.5 16.5 16.5s16.5-7.387 16.5-16.5v-82.748c.99.082 1.989.134 3 .134 7.607 0 14.658-2.365 20.471-6.392 6.861 4.056 14.859 6.392 23.407 6.392 10.055 0 19.35-3.231 26.925-8.697 6.415 3.083 13.604 4.811 21.197 4.811s14.782-1.728 21.197-4.811c7.575 5.467 16.87 8.697 26.925 8.697 9.23 0 17.818-2.724 25.026-7.398 6.06 4.637 13.632 7.398 21.852 7.398 19.882 0 36-16.118 36-36s-16.118-36-36-36z" fill="#fff4c5"/><path d="m343.5 90.886c-2.814 0-5.549.333-8.177.944-8.206-12.686-22.468-21.088-38.701-21.088-5.447 0-10.671.952-15.522 2.688-6.994-6.24-15.787-10.503-25.505-11.915v96.956c4.981-.723 9.725-2.177 14.102-4.281 7.575 5.467 16.87 8.697 26.925 8.697 9.23 0 17.818-2.724 25.026-7.398 6.06 4.637 13.632 7.398 21.852 7.398 19.882 0 36-16.118 36-36s-16.118-36.001-36-36.001z" fill="#ffe89c"/></svg>